<?xml version="1.0" standalone="no"?><!DOCTYPE svg PUBLIC "-//W3C//DTD SVG 1.1//EN" "http://www.w3.org/Graphics/SVG/1.1/DTD/svg11.dtd"><svg t="1738120002481" class="icon" viewBox="0 0 1024 1024" version="1.1" xmlns="http://www.w3.org/2000/svg" p-id="4255" xmlns:xlink="http://www.w3.org/1999/xlink" width="200" height="200"><path d="M136.533333 0h750.933334a136.533333 136.533333 0 0 1 136.533333 136.533333v750.933334a136.533333 136.533333 0 0 1-136.533333 136.533333H136.533333a136.533333 136.533333 0 0 1-136.533333-136.533333V136.533333a136.533333 136.533333 0 0 1 136.533333-136.533333z" fill="#35ACFF" p-id="4256"></path><path d="M765.866667 294.4c20.036267 0 36.266667 16.2304 36.266666 36.266667v435.2A36.266667 36.266667 0 0 1 765.866667 802.133333H258.133333A36.266667 36.266667 0 0 1 221.866667 765.866667v-435.2C221.866667 310.6304 238.097067 294.4 258.133333 294.4h507.733334zM391.1168 620.8H342.749867a12.0832 12.0832 0 0 0-12.0832 12.0832v48.366933c0 6.656 5.410133 12.0832 12.0832 12.0832h48.366933a12.0832 12.0832 0 0 0 12.0832-12.0832v-48.366933a12.0832 12.0832 0 0 0-12.0832-12.0832z m145.066667 0h-48.366934a12.0832 12.0832 0 0 0-12.0832 12.0832v48.366933c0 6.656 5.410133 12.0832 12.0832 12.0832h48.366934a12.0832 12.0832 0 0 0 12.0832-12.0832v-48.366933a12.0832 12.0832 0 0 0-12.0832-12.0832z m145.066666 0h-48.366933a12.0832 12.0832 0 0 0-12.0832 12.0832v48.366933c0 6.656 5.410133 12.0832 12.0832 12.0832h48.366933a12.0832 12.0832 0 0 0 12.0832-12.0832v-48.366933a12.0832 12.0832 0 0 0-12.0832-12.0832z m-290.133333-145.066667H342.749867a12.0832 12.0832 0 0 0-12.0832 12.0832v48.366934c0 6.656 5.410133 12.0832 12.0832 12.0832h48.366933a12.0832 12.0832 0 0 0 12.0832-12.0832v-48.366934a12.0832 12.0832 0 0 0-12.0832-12.0832z m145.066667 0h-48.366934a12.0832 12.0832 0 0 0-12.0832 12.0832v48.366934c0 6.656 5.410133 12.0832 12.0832 12.0832h48.366934a12.0832 12.0832 0 0 0 12.0832-12.0832v-48.366934a12.0832 12.0832 0 0 0-12.0832-12.0832z m145.066666 0h-48.366933a12.0832 12.0832 0 0 0-12.0832 12.0832v48.366934c0 6.656 5.410133 12.0832 12.0832 12.0832h48.366933a12.0832 12.0832 0 0 0 12.0832-12.0832v-48.366934a12.0832 12.0832 0 0 0-12.0832-12.0832z" fill="#FFFFFF" p-id="4257"></path><path d="M357.6832 221.866667h59.733333c9.966933 0 14.933333 4.027733 14.933334 12.0832v120.900266c0 8.055467-4.9664 12.0832-14.933334 12.0832h-59.733333c-9.949867 0-14.933333-4.027733-14.933333-12.0832V233.949867c0-8.055467 4.983467-12.0832 14.933333-12.0832zM606.583467 221.866667h59.733333c9.949867 0 14.933333 4.027733 14.933333 12.0832v120.900266c0 8.055467-4.983467 12.0832-14.933333 12.0832h-59.733333c-9.966933 0-14.933333-4.027733-14.933334-12.0832V233.949867c0-8.055467 4.9664-12.0832 14.933334-12.0832z" fill="#AADCFF" p-id="4258"></path></svg>